<?xml version="1.0" standalone="no"?>
<!DOCTYPE svg PUBLIC "-//W3C//DTD SVG 20010904//EN"
 "http://www.w3.org/TR/2001/REC-SVG-20010904/DTD/svg10.dtd">
<svg version="1.0" xmlns="http://www.w3.org/2000/svg"
 width="260.000000pt" height="260.000000pt" viewBox="0 0 260.000000 260.000000"
 preserveAspectRatio="xMidYMid meet">
<metadata>
Created by potrace 1.11, written by Peter Selinger 2001-2013
</metadata>
<g transform="translate(0.000000,260.000000) scale(0.100000,-0.100000)"
fill="#000000" stroke="none">
<path d="M1261 2503 c-53 -26 -104 -107 -154 -245 l-24 -66 36 -4 c20 -1 60
-1 90 2 51 5 55 7 63 36 4 18 14 44 22 58 l13 26 21 -48 c23 -54 74 -223 69
-228 -2 -2 -164 -5 -359 -6 l-356 -3 -39 -31 c-65 -53 -67 -59 -68 -349 -1
-143 0 -265 2 -272 4 -11 23 -16 108 -29 22 -3 43 -8 48 -11 4 -2 7 115 7 261
l0 266 23 1 c104 2 659 1 662 -2 6 -6 13 -52 20 -122 3 -34 8 -84 11 -112 10
-103 14 -468 4 -480 -6 -8 -60 -11 -182 -9 -271 3 -416 16 -660 58 -69 12
-226 58 -284 82 l-39 17 60 27 60 28 0 81 c1 95 2 95 -102 56 -186 -70 -256
-153 -208 -245 32 -62 189 -140 365 -182 52 -12 97 -23 99 -25 3 -2 5 -81 6
-176 1 -121 5 -179 14 -197 23 -44 64 -80 101 -89 19 -5 150 -9 292 -9 l256 0
12 67 c6 36 14 74 17 84 4 16 -11 17 -219 17 -123 -1 -242 -1 -265 0 l-43 0 0
141 c0 77 3 138 8 136 8 -5 71 -13 178 -22 126 -11 166 -13 351 -14 l182 -1
-4 -22 c-2 -13 -6 -54 -10 -93 -16 -182 -108 -565 -135 -565 -4 0 -19 26 -32
58 l-25 57 -59 -2 c-33 0 -69 -2 -81 -2 -31 -1 -29 -17 13 -119 56 -136 128
-217 183 -207 9 2 21 4 28 4 19 2 73 52 100 93 42 68 110 263 127 365 1 7 5
15 8 19 4 3 84 6 180 7 154 2 177 4 208 23 59 34 80 84 80 192 l0 94 -27 -6
c-16 -3 -50 -8 -78 -12 -27 -3 -52 -8 -54 -10 -3 -3 -6 -28 -7 -57 -1 -28 -3
-54 -3 -57 -1 -3 -62 -4 -137 -2 l-136 3 5 47 c4 26 9 81 13 122 3 41 7 76 8
77 1 1 28 4 61 8 113 11 226 24 260 31 11 3 38 7 60 10 112 17 294 73 386 119
227 116 160 267 -163 365 l-28 9 0 -87 0 -87 63 -24 62 -25 -55 -24 c-30 -13
-94 -34 -142 -47 l-88 -24 0 345 c0 277 -3 351 -14 379 -32 77 -80 102 -198
104 -47 1 -88 -1 -91 -6 -3 -4 1 -37 7 -73 7 -36 13 -69 14 -75 2 -9 17 -12
87 -14 l30 -1 0 -339 c0 -187 -2 -342 -5 -344 -6 -6 -75 -16 -166 -23 l-71 -6
-1 178 c-1 99 -3 204 -6 234 -3 30 -8 93 -11 139 -4 46 -8 91 -10 100 -1 9 -6
41 -10 71 -4 30 -9 64 -11 75 -3 11 -7 36 -10 55 -21 134 -89 339 -140 421
-24 38 -78 89 -97 90 -7 0 -19 2 -28 4 -9 1 -30 -4 -48 -12z"/>
</g>
</svg>
