<?xml version="1.0" standalone="no"?>
<!DOCTYPE svg PUBLIC "-//W3C//DTD SVG 20010904//EN"
 "http://www.w3.org/TR/2001/REC-SVG-20010904/DTD/svg10.dtd">
<svg version="1.0" xmlns="http://www.w3.org/2000/svg"
 width="512.000000pt" height="512.000000pt" viewBox="0 0 512.000000 512.000000"
 preserveAspectRatio="xMidYMid meet">
<metadata>
Created by potrace 1.11, written by Peter Selinger 2001-2013
</metadata>
<g transform="translate(0.000000,512.000000) scale(0.100000,-0.100000)"
fill="#000000" stroke="none">
<path d="M2457 4929 c-81 -50 -164 -165 -231 -319 -35 -81 -96 -255 -96 -275
0 -13 24 -15 166 -13 l166 3 32 85 c41 105 57 140 66 140 11 0 65 -125 99
-232 37 -118 85 -307 79 -313 -2 -3 -310 -5 -684 -6 -650 0 -681 -1 -730 -20
-71 -27 -137 -88 -171 -157 l-28 -57 -3 -532 c-3 -596 -11 -533 73 -549 22 -4
42 -8 45 -9 3 0 28 -5 55 -10 28 -4 57 -10 65 -11 8 -2 30 -6 48 -9 l32 -6 0
521 0 520 679 0 c639 0 680 -1 685 -17 3 -10 7 -43 11 -73 3 -30 7 -64 9 -75
2 -11 7 -56 11 -99 4 -43 8 -86 10 -95 1 -9 6 -68 10 -131 5 -63 10 -133 11
-155 9 -92 11 -761 3 -776 -7 -15 -46 -16 -371 -13 -200 1 -394 5 -433 8 -38
3 -101 8 -140 11 -38 3 -95 8 -125 11 -30 3 -75 7 -100 10 -25 2 -61 6 -80 9
-19 2 -55 7 -80 10 -50 6 -114 15 -145 21 -10 2 -37 6 -59 10 -22 3 -43 7 -46
9 -3 1 -27 6 -54 9 -27 4 -79 14 -115 22 -36 9 -73 17 -81 19 -173 37 -470
142 -470 165 0 9 37 26 140 66 l85 32 3 171 2 170 -132 -45 c-131 -45 -280
-113 -341 -156 -327 -229 -166 -478 428 -662 76 -23 233 -63 303 -76 l62 -13
0 -333 c0 -311 1 -337 20 -388 27 -72 85 -135 156 -171 l59 -30 533 -3 c361
-2 532 1 533 8 1 5 2 13 3 18 12 48 32 145 41 198 3 22 8 51 10 67 l5 27 -520
0 -520 0 0 276 0 276 57 -7 c32 -4 64 -8 73 -10 8 -1 47 -6 85 -9 39 -4 86 -9
105 -11 35 -4 156 -14 260 -21 43 -3 718 -15 818 -14 13 0 21 -4 18 -8 -2 -4
-7 -46 -10 -92 -4 -47 -8 -94 -10 -105 -2 -11 -7 -51 -11 -88 -3 -37 -8 -76
-10 -86 -2 -10 -7 -42 -10 -72 -4 -30 -9 -63 -11 -74 -1 -11 -6 -40 -9 -65 -9
-57 -60 -298 -79 -370 -43 -162 -128 -390 -146 -390 -9 0 -25 35 -66 140 l-32
85 -170 3 -171 2 16 -47 c89 -276 172 -436 274 -528 167 -151 344 -41 493 305
15 36 30 72 32 80 2 8 15 49 29 90 26 76 59 190 70 245 3 17 7 35 9 40 1 6 9
38 16 72 l13 63 333 0 c317 0 336 1 391 22 77 29 152 104 181 181 19 51 22 78
22 229 l0 170 -43 -6 c-65 -10 -100 -16 -122 -20 -11 -3 -47 -8 -80 -12 -33
-3 -63 -8 -67 -11 -5 -2 -8 -56 -8 -119 l0 -114 -275 0 c-255 0 -275 1 -275
18 0 9 5 46 10 82 9 68 16 125 25 222 11 128 16 173 18 175 3 2 60 8 175 18
102 9 258 27 342 40 41 6 213 35 240 40 14 3 41 8 60 11 78 13 351 85 440 115
191 65 332 137 419 215 223 202 74 413 -409 578 l-130 45 2 -170 3 -171 85
-32 c147 -57 165 -69 115 -82 -14 -3 -25 -10 -25 -15 0 -5 -3 -8 -7 -7 -5 1
-24 -5 -43 -14 -30 -13 -105 -40 -120 -43 -3 -1 -39 -12 -80 -24 -76 -24 -224
-61 -240 -61 -6 0 -11 285 -12 693 l-3 692 -28 57 c-32 65 -89 121 -156 152
-41 18 -67 21 -229 24 l-184 4 6 -47 c4 -25 11 -67 16 -93 11 -62 22 -132 24
-157 1 -19 9 -20 119 -23 l117 -3 0 -679 0 -678 -27 -6 c-16 -3 -66 -10 -113
-16 -47 -6 -103 -13 -125 -15 -22 -3 -74 -8 -115 -11 -41 -3 -81 -7 -87 -9 -8
-3 -13 4 -13 18 2 77 -10 789 -14 822 -2 22 -7 83 -11 135 -4 52 -9 106 -10
120 -2 14 -6 59 -10 100 -3 41 -8 82 -10 90 -2 8 -7 40 -10 70 -31 276 -125
703 -194 875 -43 106 -80 188 -103 228 -15 26 -28 52 -28 57 0 5 -33 42 -72
83 -56 57 -83 78 -116 86 -62 17 -116 11 -165 -20z"/>
</g>
</svg>
