<?xml version="1.0" standalone="no"?>
<!DOCTYPE svg PUBLIC "-//W3C//DTD SVG 20010904//EN"
 "http://www.w3.org/TR/2001/REC-SVG-20010904/DTD/svg10.dtd">
<svg version="1.0" xmlns="http://www.w3.org/2000/svg"
 width="16.000000pt" height="16.000000pt" viewBox="0 0 16.000000 16.000000"
 preserveAspectRatio="xMidYMid meet">
	<path fill="#000000" d="M15.5,8c0,.6994-.7769,1.1919-2.4456,1.5494q-.2663.0572-.5544.1075c-.3162.055-.6506.1043-1,.1468-.4919.0594-1.0144.1063-1.5575.1388-.0325.5431-.0794,1.0656-.1388,1.5575H11.5v-.69c.3475-.0406.6819-.0869,1-.1394V11.5a1.0013,1.0013,0,0,1-1,1H9.6569q-.0507.2879-.1075.5544C9.1919,14.7231,8.6994,15.5,8,15.5c-.6344,0-1.0981-.6381-1.4456-2H7.5919A2.988,2.988,0,0,0,8,14.4512a4.8845,4.8845,0,0,0,.6325-1.9056L8.6413,12.5c.0581-.3125.1093-.6475.1543-1,.06-.4762.1082-.9844.1419-1.5138C8.6294,9.9956,8.3162,10,8,10a29.5889,29.5889,0,0,1-3.5-.1963V11.5H7.7869c-.04.3025-.0863.59-.1369.8587-.0094.0488-.0188.0957-.0281.1413H4.5a1.0013,1.0013,0,0,1-1-1V9.6569q-.2878-.0507-.5544-.1075C1.2769,9.1919.5,8.6994.5,8c0-.6344.6381-1.0981,2-1.4456V7.5919A2.988,2.988,0,0,0,1.5488,8a4.8845,4.8845,0,0,0,1.9056.6325L3.5,8.6413c.3125.0581.6475.1093,1,.1543A28.4015,28.4015,0,0,0,8,9q.4978,0,.985-.015Q9,8.4984,9,8a28.4015,28.4015,0,0,0-.2044-3.5H4.5V7.7869c-.3025-.04-.59-.0863-.8587-.1369-.0488-.0094-.0957-.0188-.1413-.0281V4.5a1.0013,1.0013,0,0,1,1-1H8.6413l-.0088-.0456A4.8861,4.8861,0,0,0,8,1.5487,2.99,2.99,0,0,0,7.5919,2.5H6.5544C6.9019,1.1381,7.3656.5,8,.5c.6994,0,1.1919.7769,1.5494,2.4456q.0572.2662.1075.5544c.055.3162.1043.6506.1468,1A29.5889,29.5889,0,0,1,10,8c0,.3162-.0044.6294-.0137.9375.5293-.0338,1.0375-.0819,1.5137-.1419V4.5h-.69c-.0406-.3475-.0869-.6819-.1394-1H11.5a1.0013,1.0013,0,0,1,1,1V8.6413l.0456-.0088A4.8845,4.8845,0,0,0,14.4512,8,2.988,2.988,0,0,0,13.5,7.5919V6.5544C14.8619,6.9019,15.5,7.3656,15.5,8Z"/>
</svg>
