<?xml version="1.0" standalone="no"?>
<!DOCTYPE svg PUBLIC "-//W3C//DTD SVG 20010904//EN"
 "http://www.w3.org/TR/2001/REC-SVG-20010904/DTD/svg10.dtd">
<svg version="1.0" xmlns="http://www.w3.org/2000/svg"
 width="16.000000pt" height="16.000000pt" viewBox="0 0 16.000000 16.000000"
 preserveAspectRatio="xMidYMid meet">
<path fill="#000000" stroke="none" d="M2.5,7.6862A4.6938,4.6938,0,0,0,1.7369,8a6.7563,6.7563,0,0,0,1.7081.5669A22.0814,22.0814,0,0,0,8,9c.33,0,.6581-.0063.9819-.0181C8.9938,8.6581,9,8.33,9,8a24.35,24.35,0,0,0-.2412-3.5H4.5V7.7469C4.2038,7.7,3.9225,7.6475,3.6594,7.59c-.0538-.0119-.1069-.0238-.1594-.0363V4.5a1,1,0,0,1,1-1H8.5788l-.0119-.055A6.7563,6.7563,0,0,0,8,1.7369,4.69,4.69,0,0,0,7.6862,2.5H6.6406C6.9975,1.2588,7.475.5,8,.5,9.1044.5,10,3.8581,10,8q0,.47-.0156.925c.5281-.0394,1.0369-.095,1.5156-.1662V4.5h-.7231c-.0463-.3469-.0994-.6813-.1594-1H11.5a1,1,0,0,1,1,1V8.5788l.055-.0119A6.7563,6.7563,0,0,0,14.2631,8,4.69,4.69,0,0,0,13.5,7.6862V6.6406c1.2412.3569,2,.8344,2,1.3594,0,.9263-2.3619,1.7056-5.5675,1.9325-.0388.55-.0938,1.075-.1631,1.5675H11.5v-.7231c.3469-.0463.6813-.0994,1-.1594V11.5a1,1,0,0,1-1,1H9.6c-.365,1.8219-.9456,3-1.6,3-.525,0-1.0025-.7588-1.3594-2H7.6862A4.6938,4.6938,0,0,0,8,14.2631a6.7563,6.7563,0,0,0,.5669-1.7081A18.685,18.685,0,0,0,8.925,9.9844Q8.47,10,8,10a25.3567,25.3567,0,0,1-3.5-.2306V11.5H7.7469c-.0469.2962-.0994.5775-.1569.8406-.0119.0538-.0238.1069-.0363.1594H4.5a1,1,0,0,1-1-1V9.6C1.6781,9.235.5,8.6544.5,8c0-.525.7588-1.0025,2-1.3594Z"/>
</svg>
