<svg xmlns="http://www.w3.org/2000/svg" viewBox="0 0 1096 384">
	<path fill="hsla(220, 10%, 85%, 1)" d="M437.0332,208.19q0-6.0951-4.2861-9.3965t-15.46-6.6669q-11.1753-3.3648-17.7773-7.4913-12.6359-7.9365-12.6348-20.6982,0-11.1738,9.11-18.4131t23.6513-7.2373a39.9737,39.9737,0,0,1,17.2061,3.5547,28.2532,28.2532,0,0,1,11.872,10.127,25.9763,25.9763,0,0,1,4.3174,14.5712h-15.999q0-7.1776-4.54-11.2392t-12.9844-4.0615q-7.8722,0-12.2217,3.3505a11.1429,11.1429,0,0,0-4.3486,9.3584q0,5.06,4.6982,8.4414,4.6978,3.3838,15.4912,6.5762a70.9711,70.9711,0,0,1,17.333,7.2881,27.5857,27.5857,0,0,1,9.5879,9.3975,24.4749,24.4749,0,0,1,3.0469,12.4121q0,11.5561-8.8564,18.3808-8.858,6.8262-24.0313,6.8252a45.1477,45.1477,0,0,1-18.4443-3.7138,30.971,30.971,0,0,1-13.0791-10.2539,25.55,25.55,0,0,1-4.667-15.2383h16.0635q0,7.8735,5.206,12.19t14.9209,4.3174q8.38,0,12.6025-3.3965A10.9594,10.9594,0,0,0,437.0332,208.19Zm88.8242-9.8408q0,15.9375-7.2383,25.4287a23.178,23.178,0,0,1-19.4277,9.4912q-11.3027,0-18.0947-7.4277v32.57H465.668V163.3027H479.89l.6348,6.9834q6.7939-8.2528,18.4766-8.2539,12.5712,0,19.7138,9.3653t7.1426,26Zm-15.3652-1.334q0-10.2846-4.0947-16.3164a13.3131,13.3131,0,0,0-11.7139-6.0322q-9.4614,0-13.5869,7.81v30.4755q4.1893,8.001,13.7138,8a13.2956,13.2956,0,0,0,11.5235-5.9365Q510.4913,209.08,510.4922,197.0156Zm58.666,36.2539q-14.6659,0-23.7773-9.2373T536.27,199.4287v-1.9043a41.2063,41.2063,0,0,1,3.9688-18.3808A30.1888,30.1888,0,0,1,551.3809,166.54a29.46,29.46,0,0,1,16-4.5078q14.03,0,21.6816,8.9522t7.6514,25.333V202.54H551.8252q.6972,8.5079,5.6826,13.46a17.0574,17.0574,0,0,0,12.5391,4.9521,20.89,20.89,0,0,0,17.2695-8.5712l8.3174,7.9365a27.7669,27.7669,0,0,1-11.0156,9.5556A34.4988,34.4988,0,0,1,569.1582,233.27Zm-1.8408-58.8564a12.9936,12.9936,0,0,0-10.2539,4.4443q-3.9052,4.4458-4.9844,12.3809h29.3965v-1.1426q-.5083-7.7461-4.127-11.7139T567.3174,174.4131ZM638.9346,233.27q-14.6661,0-23.7774-9.2373t-9.1113-24.6035v-1.9043a41.2076,41.2076,0,0,1,3.9687-18.3808A30.1894,30.1894,0,0,1,621.1572,166.54a29.46,29.46,0,0,1,16-4.5078q14.03,0,21.6817,8.9522t7.6513,25.333V202.54H621.6016q.6972,8.5079,5.6826,13.46a17.057,17.057,0,0,0,12.539,4.9521,20.89,20.89,0,0,0,17.27-8.5712l8.3174,7.9365a27.7666,27.7666,0,0,1-11.0157,9.5556A34.4984,34.4984,0,0,1,638.9346,233.27Zm-1.8408-58.8564a12.9939,12.9939,0,0,0-10.254,4.4443q-3.9052,4.4458-4.9843,12.3809H651.252v-1.1426q-.5083-7.7461-4.127-11.7139T637.0938,174.4131Zm38.4755,22.7305q0-15.8732,7.3653-25.4922a23.5966,23.5966,0,0,1,19.7461-9.6192q10.919,0,17.65,7.6192V134.4775h15.4277V232H721.791l-.7617-7.1113q-6.9215,8.3818-18.4756,8.3808a23.4651,23.4651,0,0,1-19.5244-9.7138Q675.5689,213.8408,675.5693,197.1436Zm15.4287,1.333q0,10.4751,4.0313,16.3486a13.08,13.08,0,0,0,11.46,5.873q9.46,0,13.8418-8.4443v-29.333q-4.2555-8.253-13.7139-8.2539a13.1785,13.1785,0,0,0-11.5557,5.9365Q690.9966,186.5405,690.998,198.4766Zm89.0782,22.4755a13.9521,13.9521,0,0,0,9.5869-3.3642,11.5041,11.5041,0,0,0,4.0635-8.3184h14.539a22.666,22.666,0,0,1-4,11.9688,26.2464,26.2464,0,0,1-10.1582,8.7939,30.2818,30.2818,0,0,1-13.8408,3.2373q-14.4141,0-22.8574-9.333-8.4449-9.3325-8.4444-25.7773v-1.5879q0-15.6812,8.3809-25.11t22.8574-9.4287q12.252,0,19.9678,7.1426,7.7139,7.144,8.0947,18.7617h-14.539a14.1309,14.1309,0,0,0-4.0323-9.7138,12.9694,12.9694,0,0,0-9.6181-3.81q-7.4926,0-11.5557,5.4287-4.065,5.4287-4.1269,16.4756v2.4765q0,11.1753,4.0312,16.6661Q772.4561,220.9532,780.0762,220.9521Zm81.459,4.3174q-6.7955,8.001-19.3018,8-11.1753,0-16.92-6.539-5.7481-6.5391-5.7461-18.9209V163.3027h15.4277v44.3164q0,13.0811,10.8574,13.0791,11.2383,0,15.1748-8.0634V163.3027h15.4278V232H861.916Zm90.9189-26.92q0,15.999-7.1426,25.46t-19.65,9.46q-12.0644,0-18.7939-8.6982L906.1055,232H892.1377V134.4775h15.4287v35.4278q6.6665-7.8722,17.9678-7.8731,12.5712,0,19.7451,9.333t7.1748,26.0957Zm-15.4287-1.334q0-11.1738-3.9356-16.7607-3.9375-5.5869-11.4287-5.5879-10.0326,0-14.0947,8.7617v28.3174q4.125,8.953,14.2217,8.9521,7.2378,0,11.1748-5.3964,3.9345-5.3965,4.0625-16.3174ZM995.6289,233.27q-14.666,0-23.7773-9.2373T962.74,199.4287v-1.9043a41.2063,41.2063,0,0,1,3.9688-18.3808A30.1888,30.1888,0,0,1,977.8516,166.54a29.46,29.46,0,0,1,16-4.5078q14.03,0,21.6816,8.9522t7.6514,25.333V202.54H978.2959q.6972,8.5079,5.6826,13.46a17.0574,17.0574,0,0,0,12.5391,4.9521,20.89,20.89,0,0,0,17.2695-8.5712l8.3174,7.9365a27.7669,27.7669,0,0,1-11.0156,9.5556A34.4988,34.4988,0,0,1,995.6289,233.27Zm-1.8408-58.8564a12.9936,12.9936,0,0,0-10.2539,4.4443q-3.9053,4.4458-4.9844,12.3809h29.3965v-1.1426q-.5083-7.7461-4.127-11.7139T993.7881,174.4131ZM104,186.98A75.0838,75.0838,0,0,0,91.79,192c4.7,2.54,13.24,5.97,27.33,9.07,20.31,4.47,46.2,6.93,72.88,6.93,5.28,0,10.53-.1,15.71-.29.19-5.18.29-10.43.29-15.71a389.4168,389.4168,0,0,0-3.86-56H136v51.95c-4.74-.75-9.24-1.59-13.45-2.51-.86-.19-1.71-.38-2.55-.58V136a15.9956,15.9956,0,0,1,16-16h65.26c-.06-.3-.13-.59-.19-.88-3.1-14.09-6.53-22.63-9.07-27.33A75.0838,75.0838,0,0,0,186.98,104H170.25C175.96,84.14,183.6,72,192,72c17.67,0,32,53.73,32,120q0,7.515-.25,14.8c8.45-.63,16.59-1.52,24.25-2.66V136H236.43c-.74-5.55-1.59-10.9-2.55-16H248a15.9956,15.9956,0,0,1,16,16v65.26c.3-.06.59-.13.88-.19,14.09-3.1,22.63-6.53,27.33-9.07A75.0838,75.0838,0,0,0,280,186.98V170.25c19.86,5.71,32,13.35,32,21.75,0,14.82-37.79,27.29-89.08,30.92-.62,8.8-1.5,17.2-2.61,25.08H248V236.43c5.55-.74,10.9-1.59,16-2.55V248a15.9956,15.9956,0,0,1-16,16H217.6c-5.84,29.15-15.13,48-25.6,48-8.4,0-16.04-12.14-21.75-32h16.73A75.0838,75.0838,0,0,0,192,292.21c2.54-4.7,5.97-13.24,9.07-27.33a298.8833,298.8833,0,0,0,5.73-41.13q-7.275.255-14.8.25a405.7081,405.7081,0,0,1-56-3.69V248h51.95c-.75,4.74-1.59,9.24-2.51,13.45-.19.86-.38,1.71-.58,2.55H136a15.9956,15.9956,0,0,1-16-16V217.6c-29.15-5.84-48-15.13-48-25.6,0-8.4,12.14-16.04,32-21.75Z"/>
</svg>
