<svg xmlns="http://www.w3.org/2000/svg" viewBox="0 0 66 24" width="66" height="24">
	<path fill="hsla(220, 10%, 85%, 1)" d="M25.3154,13.5117a.6972.6972,0,0,0-.2675-.5879,3.2356,3.2356,0,0,0-.9668-.417,4.6334,4.6334,0,0,1-1.1114-.4677,1.4832,1.4832,0,0,1-.79-1.295,1.4078,1.4078,0,0,1,.5693-1.1513,2.3116,2.3116,0,0,1,1.4785-.4522,2.4964,2.4964,0,0,1,1.0762.2227,1.7706,1.7706,0,0,1,.7422.6328,1.628,1.628,0,0,1,.27.9111h-1a.8963.8963,0,0,0-.2841-.7031A1.1769,1.1769,0,0,0,24.22,9.95a1.2241,1.2241,0,0,0-.7636.21.6959.6959,0,0,0-.2725.5849.6286.6286,0,0,0,.2939.5274,3.3947,3.3947,0,0,0,.9688.4121,4.4342,4.4342,0,0,1,1.084.455,1.7263,1.7263,0,0,1,.5986.5879,1.5287,1.5287,0,0,1,.1914.7754,1.3726,1.3726,0,0,1-.5547,1.1494,2.3949,2.3949,0,0,1-1.5019.4268,2.8161,2.8161,0,0,1-1.1533-.2324,1.9316,1.9316,0,0,1-.8174-.6406,1.5922,1.5922,0,0,1-.292-.9532h1.0039a.9336.9336,0,0,0,.3262.7627,1.425,1.425,0,0,0,.9326.27,1.238,1.238,0,0,0,.7881-.212A.686.686,0,0,0,25.3154,13.5117Zm5.5537-.6152a2.5588,2.5588,0,0,1-.4531,1.59,1.5728,1.5728,0,0,1-2.3457.1289v2.0362h-.9648V10.7051h.89l.0391.4365A1.4193,1.4193,0,0,1,29.19,10.625a1.4632,1.4632,0,0,1,1.2324.5859,2.6273,2.6273,0,0,1,.4472,1.626Zm-.9609-.084a1.792,1.792,0,0,0-.2559-1.0205.8336.8336,0,0,0-.7324-.377.888.888,0,0,0-.85.4883v1.9053a.8953.8953,0,0,0,.8574.501.8336.8336,0,0,0,.7207-.3711A1.9792,1.9792,0,0,0,29.9082,12.8125Zm3.668,2.2666A1.9963,1.9963,0,0,1,32.09,14.502a2.0945,2.0945,0,0,1-.57-1.5381v-.1192a2.5807,2.5807,0,0,1,.2481-1.1494,1.89,1.89,0,0,1,.6972-.7881,1.8458,1.8458,0,0,1,1-.2822,1.6824,1.6824,0,0,1,1.3555.56,2.3625,2.3625,0,0,1,.4785,1.5831v.39H32.4922A1.2914,1.2914,0,0,0,32.8477,14a1.0678,1.0678,0,0,0,.7841.31,1.3064,1.3064,0,0,0,1.08-.5362l.52.4961a1.7336,1.7336,0,0,1-.6884.5977A2.1561,2.1561,0,0,1,33.5762,15.0791Zm-.1153-3.68a.81.81,0,0,0-.6406.2783,1.435,1.435,0,0,0-.3115.7735h1.8379V12.38a1.174,1.174,0,0,0-.2588-.7324A.8056.8056,0,0,0,33.4609,11.3994Zm4.4786,3.68a1.9963,1.9963,0,0,1-1.4864-.5771,2.0941,2.0941,0,0,1-.57-1.5381v-.1192a2.5807,2.5807,0,0,1,.2481-1.1494,1.89,1.89,0,0,1,.6972-.7881,1.8455,1.8455,0,0,1,1-.2822,1.6825,1.6825,0,0,1,1.3555.56,2.3625,2.3625,0,0,1,.4785,1.5831v.39H36.8555A1.2918,1.2918,0,0,0,37.2109,14a1.068,1.068,0,0,0,.7842.31,1.3064,1.3064,0,0,0,1.08-.5362l.52.4961a1.7336,1.7336,0,0,1-.6884.5977A2.1564,2.1564,0,0,1,37.94,15.0791Zm-.1153-3.68a.81.81,0,0,0-.6406.2783,1.435,1.435,0,0,0-.3115.7735H38.71V12.38a1.1746,1.1746,0,0,0-.2588-.7324A.8056.8056,0,0,0,37.8242,11.3994ZM40.23,12.82a2.5512,2.5512,0,0,1,.4609-1.5937,1.4756,1.4756,0,0,1,1.2344-.6016,1.4023,1.4023,0,0,1,1.1035.4766V8.9023h.9649V15h-.8741l-.0468-.4443a1.4251,1.4251,0,0,1-1.1553.5234,1.4655,1.4655,0,0,1-1.2207-.6074A2.642,2.642,0,0,1,40.23,12.82Zm.9648.084a1.7849,1.7849,0,0,0,.252,1.0215.8177.8177,0,0,0,.7168.3672.9107.9107,0,0,0,.8652-.5274v-1.834a.8967.8967,0,0,0-.8574-.5166.8246.8246,0,0,0-.7227.3711A1.9983,1.9983,0,0,0,41.1943,12.9043ZM46.7637,14.31a.871.871,0,0,0,.6-.211.72.72,0,0,0,.2539-.5195h.9092a1.4187,1.4187,0,0,1-.25.748,1.6407,1.6407,0,0,1-.6358.55,1.8932,1.8932,0,0,1-.8652.2021,1.8307,1.8307,0,0,1-1.4287-.583,2.3143,2.3143,0,0,1-.5283-1.6123v-.0986a2.2742,2.2742,0,0,1,.5244-1.57,1.8145,1.8145,0,0,1,1.4287-.59,1.7671,1.7671,0,0,1,1.249.4473,1.5992,1.5992,0,0,1,.5059,1.1728h-.9092a.8859.8859,0,0,0-.252-.6074.81.81,0,0,0-.6015-.2383.8492.8492,0,0,0-.7227.34,1.7338,1.7338,0,0,0-.2578,1.0293v.1552a1.76,1.76,0,0,0,.252,1.042A.8472.8472,0,0,0,46.7637,14.31Zm5.0937.27a1.4945,1.4945,0,0,1-1.207.5,1.3321,1.3321,0,0,1-1.0576-.4082,1.736,1.736,0,0,1-.3594-1.1836V10.7051h.9648v2.7705q0,.8174.6788.8174a.9533.9533,0,0,0,.9482-.5039v-3.084H52.79V15h-.9091Zm5.6846-1.6826a2.5811,2.5811,0,0,1-.4473,1.5918,1.4547,1.4547,0,0,1-1.2285.5908,1.3987,1.3987,0,0,1-1.1748-.5439L54.6436,15h-.8731V8.9023h.9649v2.2149a1.3952,1.3952,0,0,1,1.123-.4922,1.4716,1.4716,0,0,1,1.2344.584,2.6171,2.6171,0,0,1,.4492,1.6318Zm-.9649-.084a1.825,1.825,0,0,0-.246-1.0479.8213.8213,0,0,0-.7149-.35.8948.8948,0,0,0-.8808.5479v1.7705a.9047.9047,0,0,0,.8886.56.8147.8147,0,0,0,.6992-.3369,1.7642,1.7642,0,0,0,.2539-1.0206Zm3.6641,2.2666a1.9962,1.9962,0,0,1-1.4863-.5771,2.0941,2.0941,0,0,1-.57-1.5381v-.1192a2.582,2.582,0,0,1,.248-1.1494,1.89,1.89,0,0,1,.6973-.7881,1.8453,1.8453,0,0,1,1-.2822,1.6827,1.6827,0,0,1,1.3555.56,2.3625,2.3625,0,0,1,.4785,1.5831v.39H59.1572A1.2919,1.2919,0,0,0,59.5127,14a1.0678,1.0678,0,0,0,.7842.31,1.3066,1.3066,0,0,0,1.08-.5362l.52.4961a1.7346,1.7346,0,0,1-.6885.5977A2.1561,2.1561,0,0,1,60.2412,15.0791Zm-.1152-3.68a.81.81,0,0,0-.6406.2783,1.4359,1.4359,0,0,0-.3116.7735h1.8379V12.38a1.174,1.174,0,0,0-.2588-.7324A.8054.8054,0,0,0,60.126,11.3994ZM18.71,11a5.4809,5.4809,0,0,0-1.21-.44V11.6a2.4834,2.4834,0,0,1,.96.4,2.4834,2.4834,0,0,1-.96.4,7.7785,7.7785,0,0,1-1,.24V8.5a1.0029,1.0029,0,0,0-1-1h-.82c.06.32.11.66.14,1h.68v4.3q-.24.03-.51.06c-.16.01-.32.03-.49.04s-.34.03-.52.04c.02-.46.02-.8.02-.94v-.06c0-.17,0-.48-.02-.88-.01-.29-.02-.62-.05-.99-.01-.18-.02-.37-.04-.57-.02-.32-.05-.66-.1-1-.03-.33-.08-.67-.13-1a9.2241,9.2241,0,0,0-.22-1c-.29-1.14-.75-2-1.44-2-.41,0-.74.3-1,.79a5.4809,5.4809,0,0,0-.44,1.21H11.6a2.4834,2.4834,0,0,1,.4-.96,2.4834,2.4834,0,0,1,.4.96,7.7785,7.7785,0,0,1,.24,1H8.5a1.0029,1.0029,0,0,0-1,1v3.12c.28.06.62.11,1,.16V8.5h4.3c.04.31.07.65.1,1,.01.17.03.34.04.52.02.31.03.65.04,1,.01.31.02.63.02.96V12c0,.34-.01.67-.02.98-.31.01-.64.02-.98.02h-.02c-.33,0-.65-.01-.96-.02-.35-.01-.69-.02-1-.04-.18-.01-.35-.03-.52-.04-.35-.03-.69-.06-1-.1-.36-.05-.7-.11-1-.16a7.7785,7.7785,0,0,1-1-.24,2.4834,2.4834,0,0,1-.96-.4,2.4834,2.4834,0,0,1,.96-.4V10.56A5.4809,5.4809,0,0,0,5.29,11c-.49.26-.79.59-.79,1,0,.69.86,1.15,2,1.44a9.2241,9.2241,0,0,0,1,.22V15.5a1.0029,1.0029,0,0,0,1,1h3.12c.06-.28.11-.62.16-1H8.5V13.79c.34.05.68.08,1,.1.2.02.39.03.57.04.37.03.7.04.99.05.4.02.71.02.88.02H12c.14,0,.48,0,.94-.02-.01.18-.03.35-.04.52s-.03.33-.04.49q-.03.27-.06.51c-.05.36-.11.7-.16,1a7.7785,7.7785,0,0,1-.24,1,2.4834,2.4834,0,0,1-.4.96,2.4834,2.4834,0,0,1-.4-.96H10.56A5.4809,5.4809,0,0,0,11,18.71c.26.49.59.79,1,.79.69,0,1.15-.86,1.44-2a9.2241,9.2241,0,0,0,.22-1H15.5a1.0029,1.0029,0,0,0,1-1v-.82c-.32.06-.66.11-1,.14v.68H13.79c.03-.19.05-.37.07-.55l.03-.45c.02-.2.03-.39.04-.57.18-.01.37-.02.57-.04l.45-.03c.18-.02.36-.04.55-.07.33-.03.67-.08,1-.13a9.2241,9.2241,0,0,0,1-.22c1.14-.29,2-.75,2-1.44C19.5,11.59,19.2,11.26,18.71,11Z"/>
</svg>
