<svg xmlns="http://www.w3.org/2000/svg" viewBox="0 0 69 26" width="69" height="26">
	<path fill="#e5e5e5" d="M26.125,13.7275a1.5287,1.5287,0,0,1,.1914.7754,1.3726,1.3726,0,0,1-.5547,1.1494,2.3949,2.3949,0,0,1-1.5019.4268,2.817,2.817,0,0,1-1.1534-.2324,1.9318,1.9318,0,0,1-.8173-.6406,1.5922,1.5922,0,0,1-.292-.9532H23.001a.9339.9339,0,0,0,.3261.7627,1.4253,1.4253,0,0,0,.9327.27,1.238,1.238,0,0,0,.7881-.212.686.686,0,0,0,.2636-.5615.697.697,0,0,0-.2676-.5879,3.2332,3.2332,0,0,0-.9668-.417,4.6342,4.6342,0,0,1-1.1113-.4677,1.4832,1.4832,0,0,1-.79-1.295,1.4078,1.4078,0,0,1,.5693-1.1513,2.3116,2.3116,0,0,1,1.4785-.4522,2.4964,2.4964,0,0,1,1.0762.2227,1.7706,1.7706,0,0,1,.7422.6328,1.628,1.628,0,0,1,.2695.9111h-1a.8961.8961,0,0,0-.2842-.7031,1.1764,1.1764,0,0,0-.8115-.2539,1.2246,1.2246,0,0,0-.7637.21.6961.6961,0,0,0-.2724.5849.6284.6284,0,0,0,.2939.5274,3.3947,3.3947,0,0,0,.9688.4121,4.4342,4.4342,0,0,1,1.084.455A1.7271,1.7271,0,0,1,26.125,13.7275Zm4.4238-1.5166a2.6266,2.6266,0,0,1,.4473,1.626v.06a2.56,2.56,0,0,1-.4531,1.59,1.5728,1.5728,0,0,1-2.3457.1289v2.0362h-.9649V11.7051h.89l.039.4365a1.4194,1.4194,0,0,1,1.1553-.5166A1.463,1.463,0,0,1,30.5488,12.2109Zm-.5136,1.6016a1.792,1.792,0,0,0-.2559-1.0205.8336.8336,0,0,0-.7324-.377.8878.8878,0,0,0-.85.4883v1.9053a.8952.8952,0,0,0,.8574.501.8338.8338,0,0,0,.7207-.3711A1.98,1.98,0,0,0,30.0352,13.8125Zm5.0419-1.627a2.362,2.362,0,0,1,.4786,1.5831v.39H32.749A1.2919,1.2919,0,0,0,33.1045,15a1.0678,1.0678,0,0,0,.7842.31,1.3066,1.3066,0,0,0,1.08-.5362l.52.4961a1.7346,1.7346,0,0,1-.6885.5977,2.1561,2.1561,0,0,1-.9668.2119,1.9962,1.9962,0,0,1-1.4863-.5771,2.0941,2.0941,0,0,1-.57-1.5381v-.1192a2.582,2.582,0,0,1,.248-1.1494,1.89,1.89,0,0,1,.6973-.7881,1.8453,1.8453,0,0,1,1-.2822A1.6823,1.6823,0,0,1,35.0771,12.1855ZM34.6035,13.38a1.174,1.174,0,0,0-.2588-.7324.8955.8955,0,0,0-1.2676.03,1.4358,1.4358,0,0,0-.3115.7735h1.8379Zm4.9658-1.1944a2.362,2.362,0,0,1,.4786,1.5831v.39H37.2412A1.2919,1.2919,0,0,0,37.5967,15a1.0678,1.0678,0,0,0,.7842.31,1.3064,1.3064,0,0,0,1.08-.5362l.52.4961a1.7346,1.7346,0,0,1-.6885.5977,2.1561,2.1561,0,0,1-.9668.2119,1.9962,1.9962,0,0,1-1.4863-.5771,2.0941,2.0941,0,0,1-.57-1.5381v-.1192a2.582,2.582,0,0,1,.248-1.1494,1.89,1.89,0,0,1,.6973-.7881,1.8453,1.8453,0,0,1,1-.2822A1.6823,1.6823,0,0,1,39.5693,12.1855ZM39.0957,13.38a1.174,1.174,0,0,0-.2588-.7324.8955.8955,0,0,0-1.2676.03,1.4358,1.4358,0,0,0-.3115.7735h1.8379Zm4.4492-3.4776H44.51V16h-.8741l-.0468-.4443a1.4251,1.4251,0,0,1-1.1553.5234,1.4655,1.4655,0,0,1-1.2207-.6074,2.642,2.642,0,0,1-.4668-1.6514,2.5512,2.5512,0,0,1,.4609-1.5937,1.4756,1.4756,0,0,1,1.2344-.6016,1.4023,1.4023,0,0,1,1.1035.4766Zm0,3.0293a.8967.8967,0,0,0-.8574-.5166.8246.8246,0,0,0-.7227.3711,1.9983,1.9983,0,0,0-.2539,1.1182,1.7849,1.7849,0,0,0,.252,1.0215.8177.8177,0,0,0,.7168.3672.9107.9107,0,0,0,.8652-.5274Zm3.1426-.1923a.8492.8492,0,0,1,.7227-.34.81.81,0,0,1,.6015.2383.8863.8863,0,0,1,.252.6074h.9092a1.5992,1.5992,0,0,0-.5059-1.1728,1.7671,1.7671,0,0,0-1.249-.4473,1.8145,1.8145,0,0,0-1.4287.59,2.2738,2.2738,0,0,0-.5245,1.57v.0986a2.3144,2.3144,0,0,0,.5284,1.6123,1.8307,1.8307,0,0,0,1.4287.583,1.8935,1.8935,0,0,0,.8652-.2021,1.6407,1.6407,0,0,0,.6358-.55,1.4187,1.4187,0,0,0,.25-.748h-.9092a.72.72,0,0,1-.2539.5195.871.871,0,0,1-.6.211.8475.8475,0,0,1-.7286-.3438,1.7607,1.7607,0,0,1-.2519-1.042v-.1552A1.7338,1.7338,0,0,1,46.6875,12.7393Zm5.9141,2.05a.9534.9534,0,0,1-.9483.5039q-.68,0-.6787-.8174v-2.77H50.01v2.7822a1.7365,1.7365,0,0,0,.3593,1.1836,1.3323,1.3323,0,0,0,1.0577.4082,1.4947,1.4947,0,0,0,1.207-.5L52.6572,16h.9092V11.7051h-.9648Zm5.3974-2.58a2.6171,2.6171,0,0,1,.4492,1.6318v.0557a2.5818,2.5818,0,0,1-.4472,1.5918,1.455,1.455,0,0,1-1.2285.5908,1.3985,1.3985,0,0,1-1.1748-.5439L55.55,16h-.873V9.9023h.9648v2.2149a1.3952,1.3952,0,0,1,1.123-.4922A1.4713,1.4713,0,0,1,57.999,12.209Zm-.5156,1.6035a1.8241,1.8241,0,0,0-.2461-1.0479.8211.8211,0,0,0-.7148-.35.8949.8949,0,0,0-.8809.5479v1.7705a.905.905,0,0,0,.8887.56.8149.8149,0,0,0,.6992-.3369,1.7649,1.7649,0,0,0,.2539-1.0206ZM63,14.1582H60.1934A1.2918,1.2918,0,0,0,60.5488,15a1.068,1.068,0,0,0,.7842.31,1.3064,1.3064,0,0,0,1.08-.5362l.52.4961a1.7339,1.7339,0,0,1-.6885.5977,2.1558,2.1558,0,0,1-.9668.2119,1.9962,1.9962,0,0,1-1.4863-.5771,2.0941,2.0941,0,0,1-.57-1.5381v-.1192a2.5807,2.5807,0,0,1,.2481-1.1494,1.89,1.89,0,0,1,.6972-.7881,1.8453,1.8453,0,0,1,1-.2822,1.6825,1.6825,0,0,1,1.3555.56A2.3625,2.3625,0,0,1,63,13.7686Zm-.9521-.7783a1.1746,1.1746,0,0,0-.2588-.7324.8955.8955,0,0,0-1.2676.03,1.435,1.435,0,0,0-.3115.7735h1.8379ZM12,6.0723l6,3.4629v6.93l-6,3.4629L6,16.4648v-6.93Zm5,4.04L12,7.2266,7,10.1123v5.7744l5,2.8867,5-2.8867ZM11.5,16h1V13.2886l3.2139-1.8555-.5-.8662L11.5,12.7114Z"/>
</svg>
