<svg xmlns="http://www.w3.org/2000/svg" viewBox="0 0 73 20" width="73" height="20">
	<path fill="#e5e5e5" d="M34.1055,11.917h2.5488v.8682H33.1172v-5.57h3.4609V8.083H34.1055V9.4561h2.05v.8681h-2.05ZM32.0508,8.918c0,1.1533-.836,1.7363-2.1094,1.7363h-.7031v2.1309H28.249v-5.57h1.8125C31.2705,7.2148,32.0508,7.8418,32.0508,8.918ZM31.084,8.94c0-.5821-.4072-.89-1.1211-.89h-.7246V9.83h.7031C30.6553,9.83,31.084,9.5664,31.084,8.94Zm-5.7481.56c-.8681-.2969-1.1757-.45-1.1757-.8789,0-.3623.373-.6592.9228-.6592a3.522,3.522,0,0,1,1.5762.418V7.4678a3.6535,3.6535,0,0,0-1.543-.3291A1.68,1.68,0,0,0,23.248,8.7422c0,.8682.5938,1.23,1.7579,1.6367.8027.2754,1.0986.4512,1.0986.9121,0,.4727-.45.7578-1.0869.7578a4.6232,4.6232,0,0,1-1.8848-.4941v.89a4.6928,4.6928,0,0,0,1.84.418c1.22,0,2.0439-.6592,2.0439-1.6924C27.0166,10.3027,26.5,9.9063,25.3359,9.5Zm13.5938.8242h2.05V9.4561H38.93V8.083h2.4726V7.2148H37.9414v5.57h3.5371V11.917H38.93Zm8.583-.33a2.7517,2.7517,0,0,1-3.0654,2.7911H42.7666v-5.57h1.6807C46.4473,7.2148,47.5127,8.3906,47.5127,9.9941Zm-1.0107.0118a1.81,1.81,0,0,0-1.9883-1.9121h-.7578v3.8125h.7353A1.7932,1.7932,0,0,0,46.502,10.0059Zm17.5722,1.1425c0,1.12-.8349,1.6368-2.0986,1.6368H60.1631v-5.57h1.8017c1.252,0,1.8565.5821,1.8565,1.418a1.2276,1.2276,0,0,1-.8018,1.208A1.2941,1.2941,0,0,1,64.0742,11.1484Zm-2.9668-1.67h.78c.6709,0,1.0107-.2637,1.0107-.7578,0-.4394-.2968-.6816-.9775-.6816h-.8135Zm2.0332,1.67c0-.5713-.3847-.8789-1.1426-.8789h-.8906v1.7032h.8789C62.7012,11.9727,63.1406,11.7412,63.1406,11.1484Zm3.2207.7686V10.3242H68.41V9.4561H66.3613V8.083H68.833V7.2148H65.3721v5.57H68.91V11.917ZM49.502,10.0059c0-1.2637.6152-2.0655,1.6923-2.0655a2.5171,2.5171,0,0,1,1.4942.5049V7.5332a2.5716,2.5716,0,0,0-1.5274-.4277,2.6556,2.6556,0,0,0-2.6806,2.9111,2.622,2.622,0,0,0,2.6806,2.8779,2.878,2.878,0,0,0,1.626-.4941v-.8457a2.8527,2.8527,0,0,1-1.5713.5166C50.15,12.0713,49.502,11.2578,49.502,10.0059Zm8.1093.5927c0,.9346-.45,1.45-1.2959,1.45-.8681,0-1.2851-.5713-1.2851-1.4717V7.2148H54.041v3.4063a2.0823,2.0823,0,0,0,2.2637,2.2734,2.112,2.112,0,0,0,2.3066-2.3174V7.2148h-1ZM6,8.5H3v1H6Zm7-5.43L7.9337,6H4V7H7v4H4v1H7v1.46l6,3.47,6-3.47V6.54Zm-.5,12.4147L8,12.8867V12H9V11H8V7.69l4.5,2.5989Zm-4-8.661L13,4.2266l4.5,2.5971L13,9.4225Zm9.5,6.063-4.5,2.598V10.2888L18,7.69Z"/>
</svg>
