<svg xmlns="http://www.w3.org/2000/svg" viewBox="0 0 1096 384">
	<path fill="hsla(220, 10%, 85%, 1)" d="M312,192c0,11.19-12.43,19.07-39.13,24.79q-4.26.915-8.87,1.72c-5.06.88-10.41,1.67-16,2.35-7.87.95-16.23,1.7-24.92,2.22-.52,8.69-1.27,17.05-2.22,24.92H248V236.96c5.56-.65,10.91-1.39,16-2.23V248a16.0212,16.0212,0,0,1-16,16H218.51q-.81,4.605-1.72,8.87C211.07,299.57,203.19,312,192,312c-10.15,0-17.57-10.21-23.13-32h16.6c2.57,8.79,5.02,13.33,6.53,15.22,2.22-2.78,6.45-11.2,10.12-30.49.05-.24.09-.48.14-.73.93-5,1.75-10.36,2.47-16,.96-7.62,1.73-15.75,2.27-24.22-4.93.15-9.94.22-15,.22a473.6855,473.6855,0,0,1-56-3.14V248h52.59c-.64,4.84-1.38,9.44-2.19,13.74-.15.78-.3,1.53-.45,2.26H136a16.0212,16.0212,0,0,1-16-16V218.51q-4.605-.81-8.87-1.72C84.43,211.07,72,203.19,72,192c0-10.15,10.21-17.57,32-23.13v16.6c-8.79,2.57-13.33,5.02-15.22,6.53,2.78,2.22,11.2,6.45,30.49,10.12.24.05.48.09.73.14,5,.93,10.36,1.75,16,2.47A454.3582,454.3582,0,0,0,192,208q7.965,0,15.76-.24.24-7.785.24-15.76a454.3582,454.3582,0,0,0-3.27-56H136v52.59c-4.84-.64-9.44-1.38-13.74-2.19-.78-.15-1.53-.3-2.26-.45V136a16.0212,16.0212,0,0,1,16-16h66.26c-.05-.25-.09-.49-.14-.73-3.67-19.29-7.9-27.71-10.12-30.49-1.51,1.89-3.96,6.43-6.53,15.22h-16.6c5.56-21.79,12.98-32,23.13-32,11.19,0,19.07,12.43,24.79,39.13q.915,4.26,1.72,8.87c.88,5.06,1.67,10.41,2.35,16A473.6855,473.6855,0,0,1,224,192c0,5.06-.07,10.07-.22,15,8.47-.54,16.6-1.31,24.22-2.27V136H236.96c-.65-5.56-1.39-10.91-2.23-16H248a16.0212,16.0212,0,0,1,16,16v66.26c.25-.05.49-.09.73-.14,19.29-3.67,27.71-7.9,30.49-10.12-1.89-1.51-6.43-3.96-15.22-6.53v-16.6C301.79,174.43,312,181.85,312,192Zm125.0332,16.1914q0-6.0966-4.2861-9.3975t-15.46-6.6669q-11.1753-3.3633-17.7773-7.4913-12.6359-7.9365-12.6348-20.6982,0-11.1738,9.11-18.4121t23.6513-7.2383a39.9737,39.9737,0,0,1,17.2061,3.5547,28.2532,28.2532,0,0,1,11.872,10.127,25.9772,25.9772,0,0,1,4.3174,14.5722h-15.999q0-7.1791-4.54-11.24t-12.9844-4.0615q-7.8722,0-12.2217,3.3505a11.1429,11.1429,0,0,0-4.3486,9.3584q0,5.06,4.6982,8.4414,4.6978,3.3838,15.4912,6.5762a70.9711,70.9711,0,0,1,17.333,7.2881,27.5857,27.5857,0,0,1,9.5879,9.3975,24.4787,24.4787,0,0,1,3.0469,12.4131q0,11.5546-8.8564,18.38-8.858,6.8262-24.0313,6.8252a45.1477,45.1477,0,0,1-18.4443-3.7138,30.971,30.971,0,0,1-13.0791-10.2539,25.5465,25.5465,0,0,1-4.667-15.2373h16.0635q0,7.872,5.206,12.1894t14.9209,4.3174q8.38,0,12.6025-3.3965A10.9588,10.9588,0,0,0,437.0332,208.1914Zm88.8242-9.8418q0,15.9375-7.2383,25.4287a23.178,23.178,0,0,1-19.4277,9.4912q-11.3027,0-18.0947-7.4277v32.57H465.668V163.3027H479.89l.6348,6.9844q6.7939-8.2529,18.4766-8.2539,12.5712,0,19.7138,9.3643,7.1427,9.3662,7.1426,26Zm-15.3652-1.334q0-10.2846-4.0947-16.3164a13.3122,13.3122,0,0,0-11.7139-6.0312q-9.4614,0-13.5869,7.8086v30.4765q4.1893,8,13.7138,7.999a13.2956,13.2956,0,0,0,11.5235-5.9365Q510.4913,209.08,510.4922,197.0156Zm58.666,36.2539q-14.6659,0-23.7773-9.2373T536.27,199.43v-1.9053a41.2093,41.2093,0,0,1,3.9688-18.3808,30.186,30.186,0,0,1,11.1426-12.6026,29.4515,29.4515,0,0,1,16-4.5078q14.03,0,21.6816,8.9512,7.6509,8.9531,7.6514,25.334V202.54H551.8252q.6972,8.5094,5.6826,13.46a17.0574,17.0574,0,0,0,12.5391,4.9521,20.89,20.89,0,0,0,17.2695-8.5712l8.3174,7.9365a27.7669,27.7669,0,0,1-11.0156,9.5556A34.4988,34.4988,0,0,1,569.1582,233.27Zm-1.8408-58.8554a12.9928,12.9928,0,0,0-10.2539,4.4433q-3.9052,4.4458-4.9844,12.3809h29.3965v-1.1426q-.5083-7.7461-4.127-11.7139T567.3174,174.4141ZM638.9346,233.27q-14.6661,0-23.7774-9.2373T606.0459,199.43v-1.9053a41.2107,41.2107,0,0,1,3.9687-18.3808,30.1867,30.1867,0,0,1,11.1426-12.6026,29.4517,29.4517,0,0,1,16-4.5078q14.03,0,21.6817,8.9512,7.6509,8.9531,7.6513,25.334V202.54H621.6016q.6972,8.5094,5.6826,13.46a17.057,17.057,0,0,0,12.539,4.9521,20.89,20.89,0,0,0,17.27-8.5712l8.3174,7.9365a27.7666,27.7666,0,0,1-11.0157,9.5556A34.4984,34.4984,0,0,1,638.9346,233.27Zm-1.8408-58.8554a12.9931,12.9931,0,0,0-10.254,4.4433q-3.9052,4.4458-4.9843,12.3809H651.252v-1.1426q-.5083-7.7461-4.127-11.7139T637.0938,174.4141Zm38.4755,22.73q0-15.8716,7.3653-25.4922a23.5957,23.5957,0,0,1,19.7461-9.6182q10.919,0,17.65,7.6191V134.4775h15.4277V232H721.791l-.7617-7.1113q-6.9215,8.3818-18.4756,8.3808a23.4651,23.4651,0,0,1-19.5244-9.7138Q675.5689,213.8408,675.5693,197.1436Zm15.4287,1.333q0,10.4765,4.0313,16.35a13.0812,13.0812,0,0,0,11.46,5.872q9.46,0,13.8418-8.4443v-29.332q-4.2555-8.253-13.7139-8.2539a13.1777,13.1777,0,0,0-11.5557,5.9355Q690.9966,186.542,690.998,198.4766Zm89.0782,22.4755a13.9521,13.9521,0,0,0,9.5869-3.3642,11.5023,11.5023,0,0,0,4.0635-8.3184h14.539a22.666,22.666,0,0,1-4,11.9688,26.2464,26.2464,0,0,1-10.1582,8.7939,30.2818,30.2818,0,0,1-13.8408,3.2373q-14.4141,0-22.8574-9.333-8.4449-9.3325-8.4444-25.7773v-1.5869q0-15.6827,8.3809-25.1114t22.8574-9.4277q12.252,0,19.9678,7.1426,7.7139,7.1426,8.0947,18.7617h-14.539a14.1314,14.1314,0,0,0-4.0323-9.7148,12.9725,12.9725,0,0,0-9.6181-3.8086q-7.4926,0-11.5557,5.4277-4.065,5.4287-4.1269,16.4766v2.4755q0,11.1753,4.0312,16.667T780.0762,220.9521Zm81.459,4.3174q-6.7955,8.001-19.3018,8-11.1753,0-16.92-6.539-5.7481-6.5391-5.7461-18.92V163.3027h15.4277v44.3164q0,13.0811,10.8574,13.0791,11.2383,0,15.1748-8.0634V163.3027h15.4278V232H861.916Zm90.9189-26.92q0,15.999-7.1426,25.46t-19.65,9.46q-12.0644,0-18.7939-8.6982L906.1055,232H892.1377V134.4775h15.4287v35.4288q6.6665-7.8721,17.9678-7.8731,12.5712,0,19.7451,9.332,7.1748,9.3341,7.1748,26.0957Zm-15.4287-1.334q0-11.1738-3.9356-16.7607-3.9375-5.5869-11.4287-5.5869-10.0326,0-14.0947,8.7617v28.3164q4.125,8.953,14.2217,8.9521,7.2378,0,11.1748-5.3964,3.9345-5.395,4.0625-16.3174ZM995.6289,233.27q-14.666,0-23.7773-9.2373T962.74,199.43v-1.9053a41.2093,41.2093,0,0,1,3.9688-18.3808,30.186,30.186,0,0,1,11.1426-12.6026,29.4515,29.4515,0,0,1,16-4.5078q14.03,0,21.6816,8.9512,7.6509,8.9531,7.6514,25.334V202.54H978.2959q.6972,8.5094,5.6826,13.46a17.0574,17.0574,0,0,0,12.5391,4.9521,20.89,20.89,0,0,0,17.2695-8.5712l8.3174,7.9365a27.7669,27.7669,0,0,1-11.0156,9.5556A34.4988,34.4988,0,0,1,995.6289,233.27Zm-1.8408-58.8554a12.9928,12.9928,0,0,0-10.2539,4.4433q-3.9053,4.4458-4.9844,12.3809h29.3965v-1.1426q-.5083-7.7461-4.127-11.7139T993.7881,174.4141Z"/>
</svg>
